<svg xmlns="http://www.w3.org/2000/svg" xmlns:xlink="http://www.w3.org/1999/xlink" xml:space="preserve" version="1.1" style="shape-rendering:geometricPrecision;text-rendering:geometricPrecision;image-rendering:optimizeQuality;" viewBox="0 0 60000 60000" x="0px" y="0px" fill-rule="evenodd" clip-rule="evenodd"><defs><style type="text/css">
   
    .fil0 {fill:black;fill-rule:nonzero}
   
  </style></defs><g><path class="fil0" d="M4918 5047l50165 0c221,0 400,179 400,400l0 6244c0,221 -179,400 -400,400l-1346 0 0 18495 689 0c221,0 400,179 400,400l0 5001c0,221 -179,400 -400,400l-2143 0c-221,0 -400,-179 -400,-400l0 -5001c0,-221 179,-400 400,-400l654 0 0 -18495 -4439 0 0 3219 2492 0c193,0 350,157 350,350 0,193 -157,350 -350,350l-2492 0 0 4221 2502 0c193,0 350,157 350,350 0,193 -157,350 -350,350l-2502 0 0 4221 2512 0c193,0 350,157 350,350 0,193 -157,350 -350,350l-2512 0 0 4221 2522 0c193,0 350,157 350,350 0,193 -157,350 -350,350l-2522 0 0 4221 2532 0c193,0 350,157 350,350 0,193 -157,350 -350,350l-2532 0 0 4221 2542 0c193,0 350,157 350,350 0,193 -157,350 -350,350l-2542 0 0 4221 2551 0c193,0 350,157 350,350 0,193 -157,350 -350,350l-2551 0 0 4221 2561 0c193,0 350,157 350,350 0,193 -157,350 -350,350l-2561 0 0 497c0,950 -20,1887 -295,2624 -309,828 -901,1374 -2036,1374l-31988 0c-2428,0 -2462,-2119 -2462,-4495l-2779 0c-193,0 -350,-157 -350,-350 0,-193 157,-350 350,-350l2777 0 0 -4221 -2787 0c-193,0 -350,-157 -350,-350 0,-193 157,-350 350,-350l2787 0 0 -4221 -2797 0c-193,0 -350,-157 -350,-350 0,-193 157,-350 350,-350l2797 0 0 -4221 -2807 0c-193,0 -350,-157 -350,-350 0,-193 157,-350 350,-350l2807 0 0 -4221 -2816 0c-193,0 -350,-157 -350,-350 0,-193 157,-350 350,-350l2816 0 0 -4221 -2826 0c-193,0 -350,-157 -350,-350 0,-193 157,-350 350,-350l2826 0 0 -4221 -2836 0c-193,0 -350,-157 -350,-350 0,-193 157,-350 350,-350l2836 0 0 -4221 -2846 0c-193,0 -350,-157 -350,-350 0,-193 157,-350 350,-350l2846 0 0 -3219 -6797 0c-221,0 -400,-179 -400,-400l0 -6244c0,-221 179,-400 400,-400zm7597 44712l35183 0 0 -4221 -35183 0 0 4221zm35183 700l-35185 0c0,1955 28,3695 1665,3695l31988 0c724,0 1097,-338 1289,-852 226,-605 242,-1467 242,-2346l0 -497zm-35183 -5621l35183 0 0 -4221 -35183 0 0 4221zm0 -4921l35183 0 0 -4221 -35183 0 0 4221zm0 -4921l35183 0 0 -4221 -35183 0 0 4221zm0 -4921l35183 0 0 -4221 -35183 0 0 4221zm0 -4921l35183 0 0 -4221 -35183 0 0 4221zm0 -4921l35183 0 0 -4221 -35183 0 0 4221zm0 -4921l35183 0 0 -3219 -35183 0 0 3219zm41511 16076l-1343 0 0 4201 1343 0 0 -4201zm657 -25539l-49365 0 0 5444 49365 0 0 -5444z"></path></g></svg>