<?xml version="1.0" standalone="no"?>
<!DOCTYPE svg PUBLIC "-//W3C//DTD SVG 20010904//EN"
 "http://www.w3.org/TR/2001/REC-SVG-20010904/DTD/svg10.dtd">
<svg version="1.0" xmlns="http://www.w3.org/2000/svg"
 width="1700.000000pt" height="1700.000000pt" viewBox="0 0 1700.000000 1700.000000"
 preserveAspectRatio="xMidYMid meet">
<metadata>
Created by potrace 1.15, written by Peter Selinger 2001-2017
</metadata>
<g transform="translate(0.000000,1700.000000) scale(0.100000,-0.100000)"
fill="#000000" stroke="none">
<path d="M5358 14716 l-47 -43 1550 -1771 c852 -974 1549 -1774 1549 -1777 0
-10 -422 -490 -431 -490 -5 0 -819 926 -1809 2058 -990 1131 -1805 2057 -1810
2057 -6 0 -30 -18 -53 -39 l-42 -40 26 -28 c14 -15 830 -947 1813 -2071 1564
-1788 1786 -2045 1774 -2060 -7 -8 -822 -940 -1810 -2070 -989 -1130 -1798
-2058 -1798 -2062 0 -4 21 -25 46 -45 l46 -38 23 24 c12 13 824 941 1805 2062
980 1121 1786 2037 1792 2035 11 -4 428 -480 428 -489 0 -3 -697 -803 -1550
-1777 l-1549 -1771 46 -41 c26 -22 50 -39 53 -38 4 2 701 796 1550 1766 848
970 1546 1760 1550 1755 4 -4 699 -799 1544 -1765 846 -967 1540 -1758 1544
-1758 4 1 27 19 51 41 l44 39 -20 23 c-11 12 -699 798 -1528 1747 -829 949
-1519 1737 -1533 1752 l-24 27 218 250 c121 137 222 247 225 243 4 -4 816
-932 1804 -2062 989 -1130 1801 -2056 1806 -2058 4 -2 28 15 53 38 l45 41
-1786 2042 c-982 1123 -1799 2056 -1814 2072 l-29 31 1803 2060 c991 1133
1807 2067 1814 2075 10 12 3 22 -37 57 l-48 41 -1807 -2064 c-993 -1136 -1808
-2065 -1810 -2065 -2 0 -101 111 -219 246 -185 211 -214 249 -204 263 7 8 706
807 1552 1775 l1539 1760 -49 43 c-46 40 -50 42 -64 25 -169 -201 -3075 -3512
-3081 -3510 -4 2 -692 786 -1529 1743 -837 957 -1532 1750 -1543 1762 l-22 22
-47 -43z m3366 -3943 l216 -247 -29 -31 c-15 -16 -108 -122 -206 -235 -98
-113 -184 -211 -190 -218 -10 -12 -53 32 -229 233 -119 136 -216 251 -214 255
5 14 422 490 429 490 4 0 104 -111 223 -247z"/>
<path d="M12737 4349 c-152 -20 -313 -96 -412 -194 -160 -161 -178 -439 -38
-621 63 -83 273 -191 553 -285 332 -110 497 -188 585 -274 79 -78 100 -129
100 -250 0 -119 -17 -166 -92 -246 -91 -99 -220 -162 -387 -190 -95 -16 -290
-6 -391 20 -112 29 -253 101 -314 160 -77 75 -131 203 -131 309 l0 43 -37 -3
-38 -3 3 -65 c9 -213 107 -358 305 -455 140 -68 223 -87 412 -92 180 -6 290 9
402 54 87 35 199 109 248 165 159 180 149 472 -21 627 -87 80 -291 174 -584
271 -390 129 -515 202 -582 338 -31 62 -33 74 -33 167 0 87 3 107 26 155 76
161 255 267 482 288 165 15 307 -8 428 -69 64 -32 161 -117 203 -178 38 -54
73 -154 82 -230 l7 -61 33 0 34 0 0 68 c0 80 -20 165 -57 242 -34 71 -149 186
-228 227 -153 80 -349 109 -558 82z"/>
<path d="M3924 3289 c-214 -573 -391 -1046 -393 -1051 -2 -5 18 -8 45 -6 l49
3 115 308 114 307 511 0 510 0 115 -310 115 -310 47 0 48 0 -26 68 c-13 37
-190 508 -392 1047 l-367 980 -51 3 -50 3 -390 -1042z m692 251 l223 -595
-471 -3 c-259 -1 -473 -1 -475 1 -2 2 93 260 210 573 118 313 224 601 237 639
l23 70 15 -45 c9 -25 116 -313 238 -640z"/>
<path d="M6761 4322 c2 -5 165 -236 362 -515 231 -327 356 -511 351 -519 -9
-15 -660 -939 -711 -1010 l-35 -48 54 0 53 1 349 500 c192 275 353 496 356
492 4 -4 162 -228 350 -498 189 -269 344 -491 346 -493 1 -2 25 -2 53 0 l51 3
-375 532 -375 532 360 510 c198 281 360 513 360 516 0 3 -22 5 -49 5 l-49 0
-337 -481 c-186 -264 -341 -477 -346 -472 -5 5 -156 220 -337 478 l-328 470
-53 3 c-29 2 -51 -1 -50 -6z"/>
<path d="M10170 3280 l0 -1050 40 0 40 0 0 1050 0 1050 -40 0 -40 0 0 -1050z"/>
</g>
</svg>
